<?xml version="1.0" encoding="UTF-8"?>
<svg version="1.1" xmlns="http://www.w3.org/2000/svg" width="512" height="512">
<path d="M0 0 C1.06817459 -0.00571014 2.13634918 -0.01142029 3.2368927 -0.01730347 C4.39343857 -0.01842133 5.54998444 -0.01953918 6.74157715 -0.02069092 C8.58648994 -0.02813828 8.58648994 -0.02813828 10.46867371 -0.03573608 C13.83020018 -0.04780714 17.19166477 -0.05529221 20.55320549 -0.05974674 C22.65553425 -0.06268569 24.75785766 -0.06679188 26.86018372 -0.07125092 C33.44467374 -0.08490575 40.02915142 -0.09458388 46.61365461 -0.09845281 C54.20292069 -0.10293749 61.79200701 -0.12051269 69.38121843 -0.1494534 C75.25739677 -0.1710812 81.13352455 -0.18115757 87.00974226 -0.18249393 C90.51542052 -0.18354059 94.02092934 -0.18941954 97.52656555 -0.20731354 C101.4355346 -0.2268811 105.34427906 -0.22250087 109.2532959 -0.21600342 C110.40984177 -0.2252182 111.56638763 -0.23443298 112.75798035 -0.243927 C122.73617524 -0.19190358 122.73617524 -0.19190358 127.49743652 3.14044189 C131.59692944 8.45870298 133.0479033 12.4247472 132.49743652 19.14044189 C130.83913607 24.49495419 128.74329686 27.51031256 123.72323227 30.28237534 C119.22626521 32.01600119 114.49624187 31.69020689 109.73815918 31.65460205 C108.57141159 31.66172714 107.404664 31.66885223 106.20256042 31.67619324 C102.35536696 31.69545188 98.50872461 31.68719759 94.66149902 31.67950439 C91.98018311 31.68941307 89.2989357 31.7010679 86.61764526 31.71524048 C80.28203912 31.74544668 73.94655817 31.7571896 67.61088598 31.76081693 C56.27803529 31.76746833 44.94527265 31.79667426 33.6125282 31.84591329 C29.00360826 31.86495876 24.39487094 31.86644871 19.78591919 31.86398315 C17.36244585 31.87056639 14.93897361 31.87757322 12.51550293 31.8850708 C11.42741837 31.88094681 10.3393338 31.87682281 9.21827698 31.87257385 C1.26857455 31.91451164 -6.37867548 32.41941172 -13.31506348 36.64044189 C-17.49205395 39.13598447 -17.49205395 39.13598447 -19.63928223 40.04669189 C-21.99059573 41.42691785 -22.43919698 42.66536471 -23.50256348 45.14044189 C-24.73940745 47.0274218 -26.0036325 48.89199328 -27.28381348 50.74981689 C-30.32332545 56.71193653 -30.79728225 62.87901401 -30.76325989 69.43814087 C-30.76708543 70.23421332 -30.77091098 71.03028577 -30.77485245 71.85048163 C-30.78510675 74.4971712 -30.78120481 77.14364075 -30.77722168 79.79034424 C-30.78157235 81.69645894 -30.78675669 83.60257188 -30.79270935 85.50868225 C-30.80607247 90.67195822 -30.806681 95.83516087 -30.80414605 100.99845076 C-30.8030745 105.31493072 -30.80796444 109.63139596 -30.81275147 113.94787276 C-30.82383741 124.13446956 -30.82428923 134.32102948 -30.8182373 144.50762939 C-30.81219782 155.00270556 -30.82451004 165.49764764 -30.84580737 175.99270093 C-30.8634428 185.01630708 -30.86942166 194.03987063 -30.86616963 203.06349337 C-30.8643597 208.44718551 -30.866964 213.830782 -30.88088417 219.21445847 C-30.89348942 224.27885305 -30.89149286 229.34303914 -30.87847328 234.40743065 C-30.87611382 236.26090377 -30.8788195 238.11439168 -30.88709641 239.96784782 C-30.94184481 253.18579055 -30.47480111 264.60441557 -21.50256348 275.14044189 C-13.80353707 282.60748257 -5.56443735 285.61432211 5.06724548 285.52812195 C5.88050657 285.53350749 6.69376765 285.53889302 7.53167301 285.54444176 C10.23062422 285.55863936 12.92907925 285.55163812 15.62805176 285.54449463 C17.57372427 285.55020247 19.51939344 285.55716834 21.46505737 285.56529236 C26.73160536 285.58319257 31.99798645 285.58206132 37.26455569 285.57634997 C41.66807849 285.57325373 46.07156944 285.57935539 50.4750877 285.58538872 C60.86643485 285.59942191 71.25769976 285.59788255 81.64904785 285.58648682 C92.35492888 285.57500531 103.06055941 285.58908467 113.76640743 285.61588329 C122.97263169 285.63806185 132.17877744 285.64467284 141.38502651 285.63880688 C146.87715695 285.63544146 152.3691268 285.63782497 157.86123466 285.65505791 C163.02665566 285.67055938 168.19170635 285.66653585 173.35711288 285.64775276 C175.24767424 285.64407584 177.13826323 285.64714909 179.02879906 285.65763855 C194.45079087 285.73664303 204.88653802 283.55563816 216.24743652 272.45294189 C222.2908309 264.58627845 223.07736655 255.1767741 222.9798584 245.61993408 C222.98572716 243.82022659 222.98572716 243.82022659 222.99171448 241.98416138 C222.99920063 238.72803618 222.98953315 235.47249596 222.9732151 232.21642208 C222.96135466 228.79238958 222.97538901 225.36847497 222.98754883 221.94445801 C223.01417211 213.25974778 223.00759113 204.57517534 222.99743652 195.89044189 C222.98646652 186.4974687 222.98131244 177.10471077 223.01473093 167.71177411 C223.02587974 164.3105784 223.02856014 160.90980948 223.01158142 157.50862885 C222.99509343 153.7199685 223.00258741 149.93203131 223.01501465 146.14337158 C223.0037001 145.02632843 222.99238556 143.90928528 222.98072815 142.75839233 C223.03120089 136.32169625 223.66380261 132.37737802 227.49743652 127.14044189 C231.89502669 123.14263265 236.18692839 122.79219873 241.92321777 122.85919189 C246.04418213 123.30943383 248.18394328 124.63841639 251.49743652 127.14044189 C254.84961553 131.6100139 255.61909145 135.62504421 255.63787842 141.114151 C255.64358856 142.1160849 255.64929871 143.1180188 255.65518188 144.15031433 C255.65629974 145.24380692 255.6574176 146.3372995 255.65856934 147.46392822 C255.66353424 148.62059998 255.66849915 149.77727173 255.6736145 150.96899414 C255.68824097 154.80349318 255.69504139 158.63795076 255.70056152 162.47247314 C255.70486059 164.46822496 255.70916021 166.46397677 255.71353602 168.45972842 C255.72534745 174.02777508 255.73288348 179.59581176 255.73633122 185.16386968 C255.74079429 192.33027728 255.75825909 199.49649246 255.78733182 206.66284162 C255.80908694 212.22150099 255.81904303 217.78010683 255.82037234 223.33880824 C255.82141177 226.64863926 255.82861971 229.95825047 255.84519196 233.26804543 C255.96601107 259.26860659 253.83626302 279.97587828 235.30993652 299.82794189 C222.48341584 312.08439499 205.86586986 318.2919213 188.25283813 318.28761292 C187.43820661 318.2912896 186.62357509 318.29496629 185.78425777 318.29875439 C183.06250488 318.3097414 180.34079025 318.31362664 177.61901855 318.31744385 C175.66382223 318.32371246 173.70862708 318.33035961 171.75343323 318.33735657 C165.3373802 318.35835898 158.92132705 318.36875809 152.50524902 318.37872314 C150.29103457 318.38277268 148.07682025 318.38688966 145.86260605 318.39107323 C135.45404799 318.41011961 125.04549699 318.42434959 114.63692486 318.4326852 C102.6511741 318.44244397 90.66560869 318.46873037 78.67992318 318.50918609 C69.39809873 318.53943186 60.11632715 318.55416223 50.83445442 318.55746621 C45.29958796 318.55980778 39.76491962 318.56865097 34.23010635 318.59392738 C29.01467158 318.61736035 23.79956323 318.62138061 18.58408928 318.611166 C16.68152589 318.61067415 14.77894559 318.61688964 12.87643242 318.63072205 C-7.59622103 318.77110672 -25.62321154 315.01995064 -41.50256348 301.14044189 C-42.16771973 300.59259033 -42.83287598 300.04473877 -43.51818848 299.48028564 C-56.73225572 287.6448514 -62.0090049 270.22482699 -63.50256348 253.14044189 C-63.83735301 246.86932887 -63.77709936 240.58800697 -63.76135254 234.31011963 C-63.76406948 232.46857567 -63.76763432 230.6270328 -63.77197266 228.78549194 C-63.78101476 223.8289591 -63.77758667 218.87251042 -63.77121449 213.91597629 C-63.76611255 208.70287794 -63.77085743 203.48978628 -63.77398682 198.27668762 C-63.777614 189.52723918 -63.77285989 180.77782463 -63.76330566 172.02838135 C-63.75242013 161.94395433 -63.75595248 151.8596082 -63.76695848 141.77518314 C-63.77606295 133.08173321 -63.77730132 124.38830748 -63.77208114 115.69485432 C-63.7689792 110.51796047 -63.76850291 105.34110452 -63.77515411 100.16421318 C-63.78097325 95.29591118 -63.77684793 90.4277125 -63.7653656 85.55942154 C-63.76274342 83.78341531 -63.76344176 82.00740023 -63.76789093 80.23139763 C-63.821214 56.76500495 -60.38141714 36.283817 -43.62756348 18.70294189 C-31.96999216 7.77843872 -16.2015959 0.0522025 0 0 Z " fill="#000000" transform="translate(143.5025634765625,112.85955810546875)"/>
<path d="M0 0 C1.00239716 -0.01022186 2.00479431 -0.02044373 3.03756714 -0.03097534 C6.34316046 -0.05871998 9.64791753 -0.05685762 12.95361328 -0.05224609 C15.25758167 -0.06002291 17.5615472 -0.06869285 19.86550903 -0.07821655 C24.69233498 -0.09313094 29.51886834 -0.09256614 34.34570312 -0.08203125 C40.52193473 -0.07044586 46.69696601 -0.10429672 52.87299919 -0.1507206 C57.63094041 -0.18022991 62.38859374 -0.18193406 67.14661026 -0.17570114 C69.42313132 -0.17672594 71.69966884 -0.18717111 73.97610092 -0.20732498 C77.16454063 -0.23208829 80.35065808 -0.21845551 83.5390625 -0.1953125 C84.47335083 -0.21059998 85.40763916 -0.22588745 86.37023926 -0.24163818 C92.13342056 -0.14949132 95.80353966 0.95549876 100.21816254 4.74584484 C105.63980095 10.56330351 106.4858009 16.44657589 106.38476562 24.15893555 C106.38856232 25.08520248 106.39235901 26.01146942 106.39627075 26.96580505 C106.40363687 30.00571336 106.38235039 33.04465034 106.35986328 36.08447266 C106.35747657 38.20861194 106.35657402 40.33275336 106.35708618 42.45689392 C106.35396499 46.89937641 106.33745094 51.34153462 106.31054688 55.78393555 C106.27654764 61.46883124 106.26891938 67.1533715 106.27043724 72.83835697 C106.26989257 77.22134268 106.25891019 81.60425123 106.24443436 85.98721123 C106.23808578 88.08310806 106.23413202 90.17901359 106.23264694 92.27491951 C106.22829448 95.20646078 106.21075217 98.1376308 106.18945312 101.0690918 C106.1903595 101.9290274 106.19126587 102.78896301 106.19219971 103.67495728 C106.10608313 111.81033043 104.77049662 117.67774557 98.89892578 123.54931641 C94.61084934 126.16980756 89.78432914 126.10172951 84.89892578 125.54931641 C80.1801389 123.85767582 77.69309761 121.68883023 74.89892578 117.54931641 C73.85765654 114.42550868 73.74340246 112.16413786 73.69360352 108.88452148 C73.67365829 107.72354446 73.65371307 106.56256744 73.63316345 105.3664093 C73.60809471 103.48661629 73.60809471 103.48661629 73.58251953 101.56884766 C73.56173843 100.28572189 73.54095734 99.00259613 73.51954651 97.68058777 C73.46440672 94.27268826 73.41496189 90.86472899 73.36669922 87.45672607 C73.31642499 83.97776993 73.26076987 80.49890033 73.20556641 77.02001953 C73.09808389 70.1965269 72.99661702 63.37295605 72.89892578 56.54931641 C58.69599722 69.61529377 45.08681478 83.25397701 31.47524261 96.92840004 C27.43481679 100.98740078 23.3897992 105.04180574 19.34405518 109.09550476 C7.85508299 120.60842875 -3.62769775 132.1275169 -15.10644531 143.65063477 C-21.47760632 150.04634261 -27.85235746 156.43845032 -34.23097396 162.8267228 C-38.25210435 166.85437861 -42.26869748 170.88648769 -46.28193808 174.92200434 C-48.77116077 177.42295531 -51.26455302 179.91971637 -53.75914574 182.41530991 C-54.91341928 183.57172972 -56.0659721 184.72987004 -57.21666145 185.88985634 C-58.78805934 187.4734586 -60.36553101 189.05075658 -61.94464111 190.62666321 C-62.82499653 191.51016103 -63.70535194 192.39365885 -64.6123848 193.30392933 C-69.84231654 198.022566 -73.52617718 199.11085556 -80.44482422 198.89697266 C-85.55998593 198.22748826 -88.09173935 195.63833561 -91.47607422 191.98681641 C-93.73623749 187.20570179 -94.36315873 182.71979168 -93.10107422 177.54931641 C-88.39590011 169.60297994 -81.08548112 163.27349779 -74.58154297 156.81860352 C-73.30918309 155.54844793 -72.03727338 154.27784127 -70.76577759 153.00682068 C-68.03830039 150.28226511 -65.30771076 147.56088255 -62.57461548 144.84196281 C-58.24915462 140.53886476 -53.93088152 136.22860107 -49.61352539 131.91737366 C-42.78230268 125.09751065 -35.94642123 118.28233958 -29.10847378 111.46921974 C-16.8654631 99.27058785 -4.62804326 87.06635368 7.60413265 74.85685736 C11.89334658 70.57602741 16.18535244 66.29802252 20.47966003 62.02230251 C23.15392822 59.35871177 25.82613828 56.6930632 28.49785233 54.02691078 C29.7328831 52.79533669 30.96878409 51.56463451 32.20563889 50.33489227 C37.98910863 44.58393818 43.73009549 38.87167989 48.89892578 32.54931641 C48.18562103 32.54345016 47.47231628 32.53758392 46.73739624 32.53153992 C39.99905873 32.47351842 33.26103502 32.40138804 26.52301598 32.31360149 C23.05931319 32.26896701 19.59572614 32.22969622 16.13183594 32.20288086 C12.14509186 32.17177877 8.15883903 32.11699192 4.17236328 32.06103516 C2.93465179 32.05464523 1.69694031 32.04825531 0.42172241 32.04167175 C-10.38637532 31.85736236 -10.38637532 31.85736236 -15.10107422 28.54931641 C-19.6859692 23.59267318 -20.46439085 19.61581909 -20.37841797 13.05322266 C-19.83167555 8.1171397 -17.24090272 5.5137229 -13.58395386 2.41958618 C-8.92649266 -0.08142155 -5.20629283 -0.02749153 0 0 Z " fill="#000000" transform="translate(326.10107421875,80.45068359375)"/>
</svg>
